<svg xmlns="http://www.w3.org/2000/svg" xmlns:xlink="http://www.w3.org/1999/xlink" width="500" zoomAndPan="magnify" viewBox="0 0 375 374.999991" height="500" preserveAspectRatio="xMidYMid meet" version="1.0"><defs><g/></defs><g fill="#f6f3f2" fill-opacity="1"><g transform="translate(65.983703, 208.124986)"><g><path d="M 0.484375 -36.5625 C 0.484375 -37.53125 0.863281 -38.171875 1.625 -38.484375 C 2.394531 -38.804688 3.328125 -38.96875 4.421875 -38.96875 C 5.628906 -38.96875 6.90625 -38.867188 8.25 -38.671875 C 9.59375 -38.484375 10.742188 -38.390625 11.703125 -38.390625 C 12.921875 -38.390625 14.265625 -38.484375 15.734375 -38.671875 C 17.210938 -38.867188 18.554688 -38.96875 19.765625 -38.96875 C 20.921875 -38.96875 21.878906 -38.804688 22.640625 -38.484375 C 23.410156 -38.171875 23.796875 -37.53125 23.796875 -36.5625 C 23.796875 -35.664062 23.523438 -35.023438 22.984375 -34.640625 C 22.441406 -34.265625 22.171875 -33.5 22.171875 -32.34375 C 22.171875 -30.75 22.585938 -28.8125 23.421875 -26.53125 C 24.253906 -24.257812 25.085938 -22.195312 25.921875 -20.34375 C 26.492188 -18.9375 27.097656 -18.96875 27.734375 -20.4375 C 28.628906 -22.488281 29.507812 -24.648438 30.375 -26.921875 C 31.238281 -29.191406 31.671875 -31 31.671875 -32.34375 C 31.671875 -33.5 31.347656 -34.316406 30.703125 -34.796875 C 30.066406 -35.273438 29.78125 -35.960938 29.84375 -36.859375 C 29.84375 -37.691406 30.066406 -38.25 30.515625 -38.53125 C 30.960938 -38.820312 31.507812 -38.96875 32.15625 -38.96875 C 32.851562 -38.96875 33.601562 -38.867188 34.40625 -38.671875 C 35.207031 -38.484375 35.894531 -38.390625 36.46875 -38.390625 C 37.050781 -38.390625 37.753906 -38.484375 38.578125 -38.671875 C 39.410156 -38.867188 40.179688 -38.96875 40.890625 -38.96875 C 41.523438 -38.96875 42.050781 -38.835938 42.46875 -38.578125 C 42.882812 -38.328125 43.09375 -37.816406 43.09375 -37.046875 C 43.09375 -36.210938 42.851562 -35.554688 42.375 -35.078125 C 41.894531 -34.597656 41.253906 -34.019531 40.453125 -33.34375 C 39.648438 -32.675781 38.722656 -31.609375 37.671875 -30.140625 C 36.617188 -28.671875 35.484375 -26.460938 34.265625 -23.515625 C 32.859375 -19.992188 31.289062 -16.519531 29.5625 -13.09375 C 27.832031 -9.675781 26.203125 -6.238281 24.671875 -2.78125 C 23.710938 -0.539062 22.59375 0.578125 21.3125 0.578125 C 20.09375 0.578125 18.941406 -0.539062 17.859375 -2.78125 C 17.023438 -4.695312 16.109375 -6.726562 15.109375 -8.875 C 14.117188 -11.019531 13.175781 -13.097656 12.28125 -15.109375 C 11.382812 -17.128906 10.597656 -18.875 9.921875 -20.34375 C 9.253906 -21.820312 8.796875 -22.816406 8.546875 -23.328125 C 7.328125 -26.140625 6.222656 -28.265625 5.234375 -29.703125 C 4.242188 -31.140625 3.394531 -32.210938 2.6875 -32.921875 C 1.976562 -33.628906 1.429688 -34.222656 1.046875 -34.703125 C 0.671875 -35.179688 0.484375 -35.800781 0.484375 -36.5625 Z M 0.484375 -36.5625 "/></g></g></g><g fill="#f6f3f2" fill-opacity="1"><g transform="translate(105.621591, 208.124986)"><g><path d="M 12.1875 0 C 11.226562 0 10.09375 0.09375 8.78125 0.28125 C 7.46875 0.476562 6.238281 0.578125 5.09375 0.578125 C 4 0.578125 3.082031 0.414062 2.34375 0.09375 C 1.613281 -0.226562 1.25 -0.867188 1.25 -1.828125 C 1.25 -2.523438 1.40625 -3.050781 1.71875 -3.40625 C 2.039062 -3.757812 2.425781 -4.207031 2.875 -4.75 C 3.320312 -5.289062 3.707031 -6.132812 4.03125 -7.28125 C 4.351562 -8.4375 4.515625 -10.132812 4.515625 -12.375 C 4.515625 -15.320312 4.53125 -17.453125 4.5625 -18.765625 C 4.59375 -20.078125 4.609375 -21.035156 4.609375 -21.640625 C 4.609375 -22.253906 4.609375 -22.941406 4.609375 -23.703125 C 4.609375 -25.429688 4.332031 -26.628906 3.78125 -27.296875 C 3.238281 -27.972656 2.695312 -28.503906 2.15625 -28.890625 C 1.613281 -29.273438 1.34375 -29.882812 1.34375 -30.71875 C 1.34375 -31.675781 1.660156 -32.328125 2.296875 -32.671875 C 2.941406 -33.023438 3.851562 -33.332031 5.03125 -33.59375 C 6.21875 -33.851562 7.644531 -34.269531 9.3125 -34.84375 C 11.351562 -35.613281 12.757812 -36.300781 13.53125 -36.90625 C 14.300781 -37.507812 14.878906 -38.003906 15.265625 -38.390625 C 15.648438 -38.773438 16.253906 -38.96875 17.078125 -38.96875 C 18.234375 -38.96875 19.003906 -38.453125 19.390625 -37.421875 C 19.773438 -36.398438 19.96875 -35.1875 19.96875 -33.78125 L 19.96875 -12.375 C 19.96875 -10.132812 20.125 -8.4375 20.4375 -7.28125 C 20.757812 -6.132812 21.144531 -5.289062 21.59375 -4.75 C 22.039062 -4.207031 22.425781 -3.757812 22.75 -3.40625 C 23.070312 -3.050781 23.234375 -2.523438 23.234375 -1.828125 C 23.234375 -0.867188 22.863281 -0.226562 22.125 0.09375 C 21.382812 0.414062 20.472656 0.578125 19.390625 0.578125 C 18.171875 0.578125 16.90625 0.476562 15.59375 0.28125 C 14.28125 0.09375 13.144531 0 12.1875 0 Z M 1.25 -41.65625 C 0.601562 -43.570312 0.9375 -45.648438 2.25 -47.890625 C 3.5625 -50.128906 5.5625 -51.957031 8.25 -53.375 C 10.488281 -54.519531 12.535156 -55.09375 14.390625 -55.09375 C 17.210938 -55.09375 19.039062 -53.941406 19.875 -51.640625 C 20.570312 -49.660156 20.265625 -47.582031 18.953125 -45.40625 C 17.640625 -43.226562 15.640625 -41.398438 12.953125 -39.921875 C 10.648438 -38.773438 8.570312 -38.203125 6.71875 -38.203125 C 3.96875 -38.203125 2.144531 -39.351562 1.25 -41.65625 Z M 1.25 -41.65625 "/></g></g></g><g fill="#f6f3f2" fill-opacity="1"><g transform="translate(125.776235, 208.124986)"><g><path d="M 0.953125 -1.828125 C 0.953125 -2.523438 1.113281 -3.050781 1.4375 -3.40625 C 1.757812 -3.757812 2.144531 -4.207031 2.59375 -4.75 C 3.039062 -5.289062 3.421875 -6.132812 3.734375 -7.28125 C 4.054688 -8.4375 4.21875 -10.132812 4.21875 -12.375 C 4.21875 -15.320312 4.234375 -17.453125 4.265625 -18.765625 C 4.296875 -20.078125 4.3125 -21.035156 4.3125 -21.640625 C 4.3125 -22.253906 4.3125 -22.941406 4.3125 -23.703125 C 4.3125 -25.429688 4.039062 -26.628906 3.5 -27.296875 C 2.957031 -27.972656 2.414062 -28.503906 1.875 -28.890625 C 1.332031 -29.273438 1.0625 -29.882812 1.0625 -30.71875 C 1.0625 -31.675781 1.378906 -32.328125 2.015625 -32.671875 C 2.648438 -33.023438 3.5625 -33.332031 4.75 -33.59375 C 5.9375 -33.851562 7.359375 -34.269531 9.015625 -34.84375 C 11.066406 -35.613281 12.472656 -36.300781 13.234375 -36.90625 C 14.003906 -37.507812 14.582031 -38.003906 14.96875 -38.390625 C 15.351562 -38.773438 15.960938 -38.96875 16.796875 -38.96875 C 17.953125 -38.96875 18.71875 -38.453125 19.09375 -37.421875 C 19.476562 -36.398438 19.671875 -35.1875 19.671875 -33.78125 L 19.671875 -33.015625 C 19.671875 -32.117188 19.832031 -31.671875 20.15625 -31.671875 C 20.476562 -31.671875 20.988281 -32.035156 21.6875 -32.765625 C 22.394531 -33.503906 23.304688 -34.351562 24.421875 -35.3125 C 25.546875 -36.28125 26.890625 -37.128906 28.453125 -37.859375 C 30.023438 -38.597656 31.800781 -38.96875 33.78125 -38.96875 C 36.789062 -38.96875 39.0625 -38.328125 40.59375 -37.046875 C 42.132812 -35.765625 43.175781 -34.164062 43.71875 -32.25 C 44.257812 -30.332031 44.53125 -28.378906 44.53125 -26.390625 L 44.53125 -12.375 C 44.53125 -10.132812 44.691406 -8.4375 45.015625 -7.28125 C 45.335938 -6.132812 45.722656 -5.289062 46.171875 -4.75 C 46.617188 -4.207031 47 -3.757812 47.3125 -3.40625 C 47.632812 -3.050781 47.796875 -2.523438 47.796875 -1.828125 C 47.796875 -0.867188 47.523438 -0.226562 46.984375 0.09375 C 46.441406 0.414062 45.722656 0.578125 44.828125 0.578125 C 43.929688 0.578125 42.890625 0.476562 41.703125 0.28125 C 40.515625 0.09375 39.378906 0 38.296875 0 C 37.273438 0 36.394531 0.046875 35.65625 0.140625 C 34.914062 0.234375 34.132812 0.347656 33.3125 0.484375 C 32.03125 0.609375 30.988281 0.320312 30.1875 -0.375 C 29.382812 -1.082031 28.984375 -2.078125 28.984375 -3.359375 L 28.984375 -19.09375 C 28.984375 -22.164062 28.660156 -24.5 28.015625 -26.09375 C 27.378906 -27.695312 26.234375 -28.5 24.578125 -28.5 C 23.097656 -28.5 21.910156 -27.75 21.015625 -26.25 C 20.117188 -24.75 19.671875 -21.660156 19.671875 -16.984375 L 19.671875 -12.375 C 19.671875 -10.132812 19.832031 -8.4375 20.15625 -7.28125 C 20.476562 -6.132812 20.863281 -5.289062 21.3125 -4.75 C 21.757812 -4.207031 22.140625 -3.757812 22.453125 -3.40625 C 22.773438 -3.050781 22.9375 -2.523438 22.9375 -1.828125 C 22.9375 -0.867188 22.566406 -0.226562 21.828125 0.09375 C 21.097656 0.414062 20.1875 0.578125 19.09375 0.578125 C 17.882812 0.578125 16.625 0.476562 15.3125 0.28125 C 14 0.09375 12.863281 0 11.90625 0 C 10.945312 0 9.8125 0.09375 8.5 0.28125 C 7.1875 0.476562 5.953125 0.578125 4.796875 0.578125 C 3.710938 0.578125 2.800781 0.414062 2.0625 0.09375 C 1.320312 -0.226562 0.953125 -0.867188 0.953125 -1.828125 Z M 0.953125 -1.828125 "/></g></g></g><g fill="#f6f3f2" fill-opacity="1"><g transform="translate(170.596862, 208.124986)"><g><path d="M 12.1875 0 C 11.226562 0 10.09375 0.09375 8.78125 0.28125 C 7.46875 0.476562 6.238281 0.578125 5.09375 0.578125 C 4 0.578125 3.082031 0.414062 2.34375 0.09375 C 1.613281 -0.226562 1.25 -0.867188 1.25 -1.828125 C 1.25 -2.523438 1.40625 -3.050781 1.71875 -3.40625 C 2.039062 -3.757812 2.425781 -4.207031 2.875 -4.75 C 3.320312 -5.289062 3.707031 -6.132812 4.03125 -7.28125 C 4.351562 -8.4375 4.515625 -10.132812 4.515625 -12.375 C 4.515625 -15.320312 4.53125 -17.453125 4.5625 -18.765625 C 4.59375 -20.078125 4.609375 -21.035156 4.609375 -21.640625 C 4.609375 -22.253906 4.609375 -22.941406 4.609375 -23.703125 C 4.609375 -25.429688 4.332031 -26.628906 3.78125 -27.296875 C 3.238281 -27.972656 2.695312 -28.503906 2.15625 -28.890625 C 1.613281 -29.273438 1.34375 -29.882812 1.34375 -30.71875 C 1.34375 -31.675781 1.660156 -32.328125 2.296875 -32.671875 C 2.941406 -33.023438 3.851562 -33.332031 5.03125 -33.59375 C 6.21875 -33.851562 7.644531 -34.269531 9.3125 -34.84375 C 11.351562 -35.613281 12.757812 -36.300781 13.53125 -36.90625 C 14.300781 -37.507812 14.878906 -38.003906 15.265625 -38.390625 C 15.648438 -38.773438 16.253906 -38.96875 17.078125 -38.96875 C 18.234375 -38.96875 19.003906 -38.453125 19.390625 -37.421875 C 19.773438 -36.398438 19.96875 -35.1875 19.96875 -33.78125 L 19.96875 -12.375 C 19.96875 -10.132812 20.125 -8.4375 20.4375 -7.28125 C 20.757812 -6.132812 21.144531 -5.289062 21.59375 -4.75 C 22.039062 -4.207031 22.425781 -3.757812 22.75 -3.40625 C 23.070312 -3.050781 23.234375 -2.523438 23.234375 -1.828125 C 23.234375 -0.867188 22.863281 -0.226562 22.125 0.09375 C 21.382812 0.414062 20.472656 0.578125 19.390625 0.578125 C 18.171875 0.578125 16.90625 0.476562 15.59375 0.28125 C 14.28125 0.09375 13.144531 0 12.1875 0 Z M 1.25 -41.65625 C 0.601562 -43.570312 0.9375 -45.648438 2.25 -47.890625 C 3.5625 -50.128906 5.5625 -51.957031 8.25 -53.375 C 10.488281 -54.519531 12.535156 -55.09375 14.390625 -55.09375 C 17.210938 -55.09375 19.039062 -53.941406 19.875 -51.640625 C 20.570312 -49.660156 20.265625 -47.582031 18.953125 -45.40625 C 17.640625 -43.226562 15.640625 -41.398438 12.953125 -39.921875 C 10.648438 -38.773438 8.570312 -38.203125 6.71875 -38.203125 C 3.96875 -38.203125 2.144531 -39.351562 1.25 -41.65625 Z M 1.25 -41.65625 "/></g></g></g><g fill="#f6f3f2" fill-opacity="1"><g transform="translate(190.751509, 208.124986)"><g><path d="M 11.90625 0 C 10.945312 0 9.8125 0.09375 8.5 0.28125 C 7.1875 0.476562 5.953125 0.578125 4.796875 0.578125 C 3.710938 0.578125 2.800781 0.414062 2.0625 0.09375 C 1.320312 -0.226562 0.953125 -0.867188 0.953125 -1.828125 C 0.953125 -2.523438 1.113281 -3.050781 1.4375 -3.40625 C 1.757812 -3.757812 2.144531 -4.207031 2.59375 -4.75 C 3.039062 -5.289062 3.421875 -6.132812 3.734375 -7.28125 C 4.054688 -8.4375 4.21875 -10.132812 4.21875 -12.375 C 4.21875 -14.550781 4.21875 -17.078125 4.21875 -19.953125 C 4.21875 -22.835938 4.234375 -25.703125 4.265625 -28.546875 C 4.296875 -31.398438 4.3125 -33.863281 4.3125 -35.9375 C 4.3125 -38.019531 4.3125 -39.347656 4.3125 -39.921875 C 4.3125 -41.648438 4.039062 -42.847656 3.5 -43.515625 C 2.957031 -44.191406 2.414062 -44.722656 1.875 -45.109375 C 1.332031 -45.492188 1.0625 -46.101562 1.0625 -46.9375 C 1.0625 -47.894531 1.378906 -48.550781 2.015625 -48.90625 C 2.648438 -49.257812 3.5625 -49.5625 4.75 -49.8125 C 5.9375 -50.070312 7.359375 -50.488281 9.015625 -51.0625 C 11.066406 -51.832031 12.472656 -52.519531 13.234375 -53.125 C 14.003906 -53.738281 14.582031 -54.234375 14.96875 -54.609375 C 15.351562 -54.992188 15.960938 -55.1875 16.796875 -55.1875 C 17.953125 -55.1875 18.71875 -54.675781 19.09375 -53.65625 C 19.476562 -52.632812 19.671875 -51.421875 19.671875 -50.015625 L 19.671875 -12.375 C 19.671875 -10.132812 19.832031 -8.4375 20.15625 -7.28125 C 20.476562 -6.132812 20.863281 -5.289062 21.3125 -4.75 C 21.757812 -4.207031 22.140625 -3.757812 22.453125 -3.40625 C 22.773438 -3.050781 22.9375 -2.523438 22.9375 -1.828125 C 22.9375 -0.867188 22.566406 -0.226562 21.828125 0.09375 C 21.097656 0.414062 20.1875 0.578125 19.09375 0.578125 C 17.882812 0.578125 16.625 0.476562 15.3125 0.28125 C 14 0.09375 12.863281 0 11.90625 0 Z M 11.90625 0 "/></g></g></g><g fill="#f6f3f2" fill-opacity="1"><g transform="translate(210.714204, 208.124986)"><g/></g></g><g fill="#f6f3f2" fill-opacity="1"><g transform="translate(221.175213, 208.124986)"><g><path d="M 6.234375 -19.484375 C 4.890625 -19.484375 3.753906 -19.882812 2.828125 -20.6875 C 1.898438 -21.488281 1.4375 -22.59375 1.4375 -24 C 1.4375 -25.40625 1.898438 -26.503906 2.828125 -27.296875 C 3.753906 -28.097656 4.890625 -28.5 6.234375 -28.5 C 7.773438 -28.5 9.3125 -28.160156 10.84375 -27.484375 C 12.382812 -26.816406 13.695312 -26.484375 14.78125 -26.484375 C 15.9375 -26.484375 17.28125 -26.816406 18.8125 -27.484375 C 20.34375 -28.160156 21.878906 -28.5 23.421875 -28.5 C 24.765625 -28.5 25.882812 -28.113281 26.78125 -27.34375 C 27.675781 -26.582031 28.125 -25.46875 28.125 -24 C 28.125 -22.59375 27.675781 -21.488281 26.78125 -20.6875 C 25.882812 -19.882812 24.765625 -19.484375 23.421875 -19.484375 C 21.878906 -19.484375 20.34375 -19.816406 18.8125 -20.484375 C 17.28125 -21.160156 15.9375 -21.5 14.78125 -21.5 C 13.695312 -21.5 12.382812 -21.160156 10.84375 -20.484375 C 9.3125 -19.816406 7.773438 -19.484375 6.234375 -19.484375 Z M 6.234375 -19.484375 "/></g></g></g><g fill="#f6f3f2" fill-opacity="1"><g transform="translate(246.800524, 208.124986)"><g/></g></g><g fill="#f6f3f2" fill-opacity="1"><g transform="translate(257.261534, 208.124986)"><g><path d="M 25.921875 1.15625 C 21.441406 1.15625 17.390625 0.0820312 13.765625 -2.0625 C 10.148438 -4.207031 7.269531 -7.164062 5.125 -10.9375 C 2.988281 -14.71875 1.921875 -19.070312 1.921875 -24 C 1.921875 -28.925781 2.988281 -33.273438 5.125 -37.046875 C 7.269531 -40.828125 10.148438 -43.785156 13.765625 -45.921875 C 17.390625 -48.066406 21.441406 -49.140625 25.921875 -49.140625 C 30.398438 -49.140625 34.445312 -48.066406 38.0625 -45.921875 C 41.675781 -43.785156 44.535156 -40.828125 46.640625 -37.046875 C 48.753906 -33.273438 49.8125 -28.925781 49.8125 -24 C 49.8125 -19.070312 48.753906 -14.71875 46.640625 -10.9375 C 44.535156 -7.164062 41.675781 -4.207031 38.0625 -2.0625 C 34.445312 0.0820312 30.398438 1.15625 25.921875 1.15625 Z M 18.234375 -24 C 18.234375 -20.09375 18.457031 -16.617188 18.90625 -13.578125 C 19.351562 -10.535156 20.132812 -8.148438 21.25 -6.421875 C 22.375 -4.703125 23.929688 -3.84375 25.921875 -3.84375 C 27.898438 -3.84375 29.429688 -4.703125 30.515625 -6.421875 C 31.609375 -8.148438 32.363281 -10.535156 32.78125 -13.578125 C 33.195312 -16.617188 33.40625 -20.09375 33.40625 -24 C 33.40625 -27.894531 33.195312 -31.363281 32.78125 -34.40625 C 32.363281 -37.445312 31.609375 -39.832031 30.515625 -41.5625 C 29.429688 -43.289062 27.898438 -44.15625 25.921875 -44.15625 C 23.929688 -44.15625 22.375 -43.289062 21.25 -41.5625 C 20.132812 -39.832031 19.351562 -37.445312 18.90625 -34.40625 C 18.457031 -31.363281 18.234375 -27.894531 18.234375 -24 Z M 18.234375 -24 "/></g></g></g></svg>